<?xml version="1.0" encoding="UTF-8"?>
<svg version="1.1" xmlns="http://www.w3.org/2000/svg" width="1080" height="1080">
<path d="M0 0 C356.4 0 712.8 0 1080 0 C1080 356.4 1080 712.8 1080 1080 C723.6 1080 367.2 1080 0 1080 C0 723.6 0 367.2 0 0 Z " fill="#07363C" transform="translate(0,0)"/>
<path d="M0 0 C16.67356126 -0.02345653 33.3471171 -0.0410414 50.02069092 -0.05181217 C57.76412511 -0.0569482 65.50754899 -0.06393902 73.25097656 -0.07543945 C80.00741776 -0.08546917 86.76385148 -0.09187296 93.52029991 -0.09408849 C97.09115907 -0.09538166 100.66199687 -0.09837767 104.23284912 -0.10573006 C139.46986071 -0.17545393 176.43635659 -0.23099287 203.71875 25.58984375 C215.27797038 37.80223925 221.36692047 51.54011218 221.3125 68.3125 C221.32861328 69.29412109 221.34472656 70.27574219 221.36132812 71.28710938 C221.37162588 86.84701905 214.701224 99.91022929 204 111 C195.87476784 118.14976091 186.81366244 124.14291307 176 126 C176 126.66 176 127.32 176 128 C176.80953125 127.93554688 177.6190625 127.87109375 178.453125 127.8046875 C182.99230008 128.05464208 186.56481983 129.43321196 190.75 131.125 C191.54986328 131.44484863 192.34972656 131.76469727 193.17382812 132.09423828 C210.7124486 139.27139512 221.73142269 150.16815208 230.44921875 166.7578125 C236.33156371 180.91672001 234.43123264 199.09895844 228.83984375 213.03515625 C226.25697838 218.85882619 222.92582369 223.99438198 219 229 C218.45730469 229.72316406 217.91460937 230.44632813 217.35546875 231.19140625 C207.26145207 243.74138806 193.01015414 250.55861746 177.8125 254.75 C177.10794678 254.94883789 176.40339355 255.14767578 175.67749023 255.35253906 C156.84866236 260.18033748 137.15599774 259.27150624 117.88554525 259.20278788 C113.72962199 259.19013768 109.57369467 259.18909892 105.41775513 259.18673706 C97.57723215 259.18056371 89.73676611 259.16421008 81.89626801 259.14403808 C72.95769738 259.12154868 64.01912379 259.11065313 55.08053184 259.10064721 C36.72032249 259.07983931 18.36016585 259.04474553 0 259 C0 256.69 0 254.38 0 252 C1.80984375 251.94392578 1.80984375 251.94392578 3.65625 251.88671875 C5.27086178 251.82100781 6.88544378 251.75456229 8.5 251.6875 C9.29148438 251.66494141 10.08296875 251.64238281 10.8984375 251.61914062 C19.25437256 251.24243863 26.05700365 249.08120557 32 243 C38.02484144 232.02618167 37.28820665 219.47047168 37.25878906 207.32250977 C37.26150262 205.43742742 37.26506559 203.55234614 37.26940918 201.66726685 C37.27849269 196.57014889 37.27500545 191.47311231 37.26865101 186.37599301 C37.26356932 181.02799853 37.26828855 175.68001077 37.27142334 170.33201599 C37.27505699 161.35178382 37.27028 152.37158459 37.26074219 143.39135742 C37.24986213 133.0280695 37.2533824 122.6648603 37.264395 112.30157429 C37.27348897 103.38491951 37.27474274 94.46828836 37.26951766 85.55163044 C37.26640913 80.23447088 37.26595774 74.91734826 37.27259064 69.60019112 C37.27839409 64.59899994 37.27431255 59.59790963 37.26280212 54.59672928 C37.26017139 52.76786529 37.2608933 50.93899272 37.26532745 49.11013222 C37.89737513 30.34087173 37.89737513 30.34087173 30 14 C23.48620184 8.90158322 16.12131939 7.70027401 8.125 7.375 C6.949375 7.31699219 6.949375 7.31699219 5.75 7.2578125 C3.83368633 7.16433378 1.91687681 7.08111505 0 7 C0 4.69 0 2.38 0 0 Z " fill="#E2C09C" transform="translate(236,308)"/>
<path d="M0 0 C2.31 0 4.62 0 7 0 C8.77809413 15.23291141 10.28382464 30.4761802 11.48690796 45.76461792 C11.61892472 47.44146979 11.75284572 49.11817301 11.88882446 50.79470825 C12.72960552 61.22418248 13.18401828 71.53432551 13 82 C11.02 82 9.04 82 7 82 C6.75507812 81.35417969 6.51015625 80.70835937 6.2578125 80.04296875 C-3.70746791 54.92358952 -17.34480737 32.29898959 -42.93798828 20.80908203 C-49.06252983 18.4059645 -55.55584196 17.21084498 -62 16 C-62.78294434 15.8249292 -63.56588867 15.6498584 -64.37255859 15.46948242 C-77.508047 13.1223774 -93.33651076 13.72109187 -106 18 C-107.11761719 18.32871094 -108.23523438 18.65742188 -109.38671875 18.99609375 C-134.16936689 26.87528551 -150.22514918 45.54150221 -162 68 C-165.2965472 74.70954851 -167.61704905 81.64713827 -169.6875 88.8125 C-169.89012451 89.49860352 -170.09274902 90.18470703 -170.30151367 90.89160156 C-174.09530584 104.68663391 -174.44108644 118.79622944 -174.4375 133 C-174.4385675 133.90219269 -174.43963501 134.80438538 -174.44073486 135.73391724 C-174.41630929 150.06046659 -173.24032947 163.24457638 -169 177 C-168.57135054 178.5451393 -168.14423991 180.09070641 -167.71875 181.63671875 C-162.68543853 198.98199656 -153.86179035 215.39080553 -142 229 C-141.43152344 229.66773438 -140.86304688 230.33546875 -140.27734375 231.0234375 C-124.74690306 247.88941977 -100.50163117 256.89461361 -78.01171875 258.23828125 C-60.02284969 258.6999609 -42.74469219 254.44713889 -26.671875 246.31640625 C-24 245 -24 245 -22 245 C-22.08474893 234.01139848 -22.17976318 223.0229367 -22.28752708 212.03453541 C-22.33726271 206.9310097 -22.38359293 201.82750245 -22.421875 196.72387695 C-22.45901725 191.78950185 -22.50545168 186.85529029 -22.55806351 181.92105675 C-22.57645497 180.04784734 -22.59161778 178.17460309 -22.60334396 176.3013401 C-21.96935674 156.63628916 -21.96935674 156.63628916 -29 139 C-35.29632313 133.93556618 -41.54785043 132.71469546 -49.375 132.375 C-50.47908203 132.31699219 -50.47908203 132.31699219 -51.60546875 132.2578125 C-53.40327406 132.16442002 -55.20160108 132.0811629 -57 132 C-57 129.36 -57 126.72 -57 124 C-23.67 124 9.66 124 44 124 C44 126.64 44 129.28 44 132 C42.7315625 132.03867187 42.7315625 132.03867187 41.4375 132.078125 C33.01215714 132.49939214 26.78856504 133.31113404 20.625 139.3125 C15.90649484 147.1161816 15.85513599 156.4612444 15.79467773 165.33178711 C15.78477814 166.23989136 15.77487854 167.14799561 15.76467896 168.08361816 C15.73326359 171.06483413 15.708386 174.04606598 15.68359375 177.02734375 C15.66300696 179.10242613 15.64201004 181.17750447 15.62062073 183.25257874 C15.56557821 188.69899214 15.51609073 194.14544228 15.46777344 199.59191895 C15.41742787 205.15571336 15.36181012 210.71945482 15.30664062 216.28320312 C15.19927718 227.18875678 15.09778426 238.09435654 15 249 C12.49500073 250.26868963 9.98827274 251.53375059 7.48046875 252.796875 C6.78175659 253.15120605 6.08304443 253.50553711 5.36315918 253.87060547 C-18.0753395 265.65419047 -42.84458833 271.48132214 -69 272 C-69.78133301 272.02578125 -70.56266602 272.0515625 -71.36767578 272.078125 C-111.17419992 273.3813875 -149.88461212 263.39698382 -179.43359375 235.8125 C-203.04658818 213.30446852 -218.53640233 182.25731968 -219.45703125 149.34375 C-219.50771524 146.43688715 -219.51510081 143.53221574 -219.5 140.625 C-219.49817719 139.93843323 -219.49635437 139.25186646 -219.49447632 138.54449463 C-219.2262707 97.40606826 -201.24590294 62.33153395 -172.60546875 33.59765625 C-149.16884283 11.48249846 -118.450295 0.59454434 -86.5378418 0.68432617 C-84.20118264 0.68748152 -81.86580029 0.66395393 -79.52929688 0.63867188 C-66.17913136 0.58134366 -53.89322911 2.83247641 -41.125 6.8125 C-39.87553589 7.19172607 -39.87553589 7.19172607 -38.60083008 7.57861328 C-32.20034897 9.54958014 -25.88416361 11.7407368 -19.64306641 14.17114258 C-15.27872133 15.80407199 -11.64633794 16.58842512 -7 16 C-3.06627255 13.2807119 -2.24089876 10.30813429 -1.25 5.75 C-0.88648438 4.13351562 -0.88648438 4.13351562 -0.515625 2.484375 C-0.34546875 1.66453125 -0.1753125 0.8446875 0 0 Z " fill="#E1BF9B" transform="translate(801,299)"/>
<path d="M0 0 C37.95 0 75.9 0 115 0 C113 6 113 6 112 8 C109.71445025 8.20886225 107.4192885 8.31498843 105.125 8.375 C97.49053449 8.71236441 90.09161032 9.92945581 83.82421875 14.6328125 C82 16 82 16 80 16 C79.71125 16.721875 79.4225 17.44375 79.125 18.1875 C78.42804095 19.92989762 77.70384778 21.66198731 76.9375 23.375 C74.90869111 29.05566489 74.85321459 34.97054853 74.86628723 40.94293213 C74.8628889 42.09794885 74.8628889 42.09794885 74.85942191 43.27629924 C74.85312267 45.84079053 74.85390864 48.40522842 74.85473633 50.96972656 C74.85174227 52.81495735 74.84833917 54.66018752 74.84455872 56.50541687 C74.83573908 61.50765088 74.83338144 66.50986777 74.83274293 71.5121088 C74.83203121 74.64081308 74.82989456 77.76951304 74.82724571 80.89821625 C74.81799863 91.82326025 74.81390998 102.74829206 74.81469727 113.67333984 C74.81529771 123.84058763 74.80475082 134.00778229 74.7889536 144.17501664 C74.77585642 152.91751041 74.77051429 161.65998687 74.77115268 170.40249038 C74.77140705 175.61797819 74.7685896 180.83341879 74.75797462 186.04889679 C74.74825711 190.95729286 74.74823944 195.86559694 74.75549126 200.77399635 C74.7565326 202.56899717 74.75420112 204.36400382 74.7481308 206.15899467 C73.93899609 223.0194432 73.93899609 223.0194432 80 238 C85.08378493 241.74594679 89.9398328 242.12312484 96.11279297 242.14526367 C97.32530731 242.15164352 98.53782166 242.15802338 99.78707886 242.16459656 C101.09226471 242.16570938 102.39745056 242.1668222 103.7421875 242.16796875 C105.11158278 242.17118811 106.48097773 242.17455268 107.85037231 242.17805481 C110.72349847 242.18403667 113.59659462 242.18589603 116.46972656 242.18530273 C120.10808296 242.18520196 123.74624046 242.19876944 127.38455009 242.21607494 C130.21773109 242.22733855 133.05086647 242.22921749 135.88406754 242.22869301 C137.86387844 242.23041162 139.84367511 242.24117194 141.82345581 242.25224304 C161.73339489 242.2030037 179.99745116 239.18461676 194.75 224.75 C199.46105248 219.87857126 202.80400254 214.96010337 206 209 C209.3 209.33 212.6 209.66 216 210 C212.22529922 226.98615353 206.25919758 243.41329995 201 260 C134.67 260 68.34 260 0 260 C0 257.36 0 254.72 0 252 C1.80984375 251.94392578 1.80984375 251.94392578 3.65625 251.88671875 C5.27086178 251.82100781 6.88544378 251.75456229 8.5 251.6875 C9.29148437 251.66494141 10.08296875 251.64238281 10.8984375 251.61914062 C18.11636322 251.29374233 25.21051295 249.76337286 30.69434261 244.65438366 C37.80248589 235.64773598 36.56125793 223.29754778 36.50170898 212.5222168 C36.50549744 210.56303521 36.51100181 208.6038563 36.51808167 206.64468384 C36.5319875 201.34899457 36.52089945 196.05363201 36.50437045 190.75796103 C36.49046199 185.19783543 36.49698684 179.63772769 36.50050354 174.07759094 C36.50320176 164.73925552 36.48976571 155.4010489 36.46655273 146.06274414 C36.43996893 135.2944467 36.43818999 124.52636485 36.4499411 113.75804585 C36.46075466 103.36818309 36.45450227 92.97839768 36.44038582 82.58854103 C36.43465465 78.18180304 36.43468605 73.77512217 36.43945122 69.36838341 C36.44425547 64.16848659 36.4339777 58.96882302 36.41249657 53.76897049 C36.40697434 51.87041955 36.40642091 49.97184599 36.41144943 48.07329369 C37.00442332 30.98879016 37.00442332 30.98879016 31.83141232 15.1825819 C30.24117874 13.58104703 30.24117874 13.58104703 27 12 C26.33484375 11.62617188 25.6696875 11.25234375 24.984375 10.8671875 C17.10064014 7.03258177 8.59321708 7.19937859 0 7 C0 4.69 0 2.38 0 0 Z " fill="#E0BE9B" transform="translate(474,368)"/>
<path d="M0 0 C2.25507469 -0.00218798 4.50965945 -0.02043336 6.76464844 -0.03930664 C19.41669996 -0.09013022 31.98324781 0.59456065 44.01464844 4.87280273 C45.1397583 5.26254272 45.1397583 5.26254272 46.28759766 5.66015625 C62.83863505 11.60250461 73.99756287 19.85201569 82.14355469 35.61108398 C88.36635831 48.9062991 88.71905154 63.0115671 84.21777344 76.92749023 C78.0578685 92.03737471 66.73881703 101.59544739 51.95214844 107.93530273 C27.93938446 116.49514683 -4.04646487 116.2065983 -28.11035156 108.18530273 C-28.11035156 72.87530273 -28.11035156 37.56530273 -28.11035156 1.18530273 C-18.65878802 0.45825939 -9.44459335 -0.00102082 0 0 Z " fill="#08363C" transform="translate(338.1103515625,440.814697265625)"/>
<path d="M0 0 C9.70920318 8.48656278 19.14587402 18.66129102 20.70214844 32.11645508 C21.67854255 47.59416748 19.85602893 61.95037847 9.27734375 74.046875 C8.6740625 74.66820312 8.07078125 75.28953125 7.44921875 75.9296875 C6.8665625 76.55101562 6.28390625 77.17234375 5.68359375 77.8125 C-9.33683021 92.39114678 -31.50089957 92.43780513 -51.10327148 92.26586914 C-54.00988039 92.2420102 -56.91558164 92.24537195 -59.82226562 92.25195312 C-61.70964078 92.24638169 -63.59701217 92.23927519 -65.484375 92.23046875 C-66.33358017 92.23138016 -67.18278534 92.23229156 -68.057724 92.23323059 C-74.59147276 92.15746294 -79.90704324 91.13763986 -86.55078125 89.9296875 C-86.55078125 56.9296875 -86.55078125 23.9296875 -86.55078125 -10.0703125 C-61.02558057 -18.57871273 -21.67736002 -17.59418195 0 0 Z " fill="#08363C" transform="translate(396.55078125,335.0703125)"/>
<path d="M0 0 C0 0.66 0 1.32 0 2 C-0.969375 2.28875 -1.93875 2.5775 -2.9375 2.875 C-6.10664203 3.64214682 -6.10664203 3.64214682 -7 6 C-6.01 6.0825 -5.02 6.165 -4 6.25 C1.9210104 7.12496712 6.99755382 9.49806668 10.9375 14.0625 C14.03931754 18.48024013 14.43702383 21.66830932 14 27 C12.19345129 32.26255494 9.77965558 35.99882091 5 39 C2.69293903 40.11027309 0.38743924 41.06374932 -2 42 C-1.29875 42.66 -0.5975 43.32 0.125 44 C5.60960186 49.46893157 10.13012824 54.73344236 10.25 62.625 C10.15782957 69.05388716 9.66289595 73.95579736 5.3359375 78.90234375 C-5.35020121 88.97115572 -17.55285279 89.47655423 -31.5234375 89.2734375 C-46.30333017 88.75493484 -59.62550888 83.48220832 -71 74 C-70.34 72.68 -69.68 71.36 -69 70 C-66.125 69.875 -66.125 69.875 -63 70 C-62.34 70.66 -61.68 71.32 -61 72 C-58.73393195 72.35775034 -58.73393195 72.35775034 -56.1875 72.3125 C-54.90939453 72.33763672 -54.90939453 72.33763672 -53.60546875 72.36328125 C-50.37649958 71.91306516 -48.65171614 70.8904914 -46 69 C-41.32061078 61.77863255 -39.37467228 52.89491706 -37.125 44.6875 C-33.41699854 31.71741422 -29.62471868 19.85946792 -20 10 C-27.93999909 9.41185192 -34.90008447 11.38711419 -41.3125 16.25 C-44.51961344 19.53169747 -46.76465299 23.01396087 -49 27 C-49.33 26.01 -49.66 25.02 -50 24 C-44.96634251 14.48070419 -36.16622432 8.54135612 -26.1171875 5.4140625 C-23.3480914 4.87250496 -20.63076041 4.8053484 -17.8125 4.6875 C-12.46500836 4.326183 -8.44472002 3.30977055 -3.70703125 0.83984375 C-2 0 -2 0 0 0 Z " fill="#0A383D" transform="translate(514,637)"/>
<path d="M0 0 C-0.66 1.32 -1.32 2.64 -2 4 C-2.66 4 -3.32 4 -4 4 C-3.731875 5.27875 -3.46375 6.5575 -3.1875 7.875 C-2.38426356 14.85105345 -6.00514077 20.14070176 -9.875 25.6875 C-11.53914061 29.10823348 -10.90706301 31.37174797 -10 35 C-8.91771628 37.94661338 -8.91771628 37.94661338 -7 40 C-4.37305578 40.41780879 -4.37305578 40.41780879 -2 40 C-2 40.66 -2 41.32 -2 42 C-2.99 42.495 -2.99 42.495 -4 43 C-3.98839844 43.73605469 -3.97679687 44.47210937 -3.96484375 45.23046875 C-3.95582031 46.20628906 -3.94679688 47.18210937 -3.9375 48.1875 C-3.92589844 49.15042969 -3.91429687 50.11335937 -3.90234375 51.10546875 C-3.99513378 53.85576513 -4.37888315 56.32479591 -5 59 C-0.04286958 63.15327143 3.34180163 64.35136491 9.70703125 64.2890625 C13.2385912 63.84385733 15.36411095 62.30640292 18 60 C19.51876811 55.44369568 20.10280282 50.48491814 18.10546875 45.984375 C17.74066406 45.35015625 17.37585938 44.7159375 17 44.0625 C14.40451782 39.50435637 14.4175385 35.1371195 15 30 C15.33 29.34 15.66 28.68 16 28 C15.01 28.495 15.01 28.495 14 29 C7.6696562 29.46038864 7.6696562 29.46038864 5.3125 27.83984375 C2.47951149 23.86860093 3.27576735 18.60822227 4 14 C6.70547533 8.39966607 11.43724928 3.78137536 17 1 C19.37123246 0.76970044 21.74741943 0.58880058 24.125 0.4375 C25.40632812 0.35371094 26.68765625 0.26992188 28.0078125 0.18359375 C28.99523437 0.12300781 29.98265625 0.06242188 31 0 C30.34 1.32 29.68 2.64 29 4 C28.34 4 27.68 4 27 4 C27.4021875 5.918125 27.4021875 5.918125 27.8125 7.875 C28.61573644 14.85105345 24.99485923 20.14070176 21.125 25.6875 C19.41734933 29.19767083 19.98808663 31.26856945 21 35 C22.17636417 37.15799238 23.45092081 39.17866397 24.84375 41.203125 C27.41258716 45.1952368 27.47951622 49.40536276 27 54 C24.72497734 60.22637782 21.31581656 62.84209172 15.5 65.75 C7.11500918 68.64576533 -1.17929852 67.74741946 -9 64 C-11.88839359 64.21134587 -14.0460648 65.01716012 -16.7578125 66.02734375 C-24.48611857 68.34583557 -32.92922506 68.03645646 -40.12109375 64.26171875 C-43.30885935 62.12107782 -44.97974646 60.32364291 -47 57 C-47.68012459 52.76811363 -47.32264803 50.65820197 -45.4375 46.8125 C-42.47291876 43.39182934 -40.08219095 41.92976299 -36 40 C-35.01 40 -34.02 40 -33 40 C-33 40.66 -33 41.32 -33 42 C-34.2375 42.495 -34.2375 42.495 -35.5 43 C-38.1951234 44.71413251 -38.1951234 44.71413251 -38.4375 47.2421875 C-38.55600244 52.23410299 -38.3449775 56.05770509 -35 60 C-30.66986624 63.78886704 -26.79856621 64.27070843 -21.23046875 64.234375 C-18.26444087 63.92270832 -16.33667171 62.80903616 -14 61 C-14.495 60.2265625 -14.495 60.2265625 -15 59.4375 C-16.34644962 56.15552906 -16.25568525 53.51567217 -16 50 C-15.34 49.01 -14.68 48.02 -14 47 C-14.32126128 44.36565746 -14.81355048 42.37289903 -16 40 C-16.0955931 38.33555539 -16.12984645 36.66718037 -16.125 35 C-16.12886719 33.6696875 -16.12886719 33.6696875 -16.1328125 32.3125 C-16 30 -16 30 -15 28 C-15.66 28.33 -16.32 28.66 -17 29 C-23.3303438 29.46038864 -23.3303438 29.46038864 -25.6875 27.83984375 C-28.52048851 23.86860093 -27.72423265 18.60822227 -27 14 C-24.29452467 8.39966607 -19.56275072 3.78137536 -14 1 C-12.00439571 0.77039212 -10.00303565 0.58917217 -8 0.4375 C-6.9275 0.35371094 -5.855 0.26992188 -4.75 0.18359375 C-3.16900381 0.07804429 -1.58451558 0 0 0 Z " fill="#D8BA98" transform="translate(611,691)"/>
<path d="M0 0 C0 0.66 0 1.32 0 2 C-0.969375 2.28875 -1.93875 2.5775 -2.9375 2.875 C-6.10664203 3.64214682 -6.10664203 3.64214682 -7 6 C-6.01 6.0825 -5.02 6.165 -4 6.25 C1.9210104 7.12496712 6.99755382 9.49806668 10.9375 14.0625 C14.03931754 18.48024013 14.43702383 21.66830932 14 27 C12.19345129 32.26255494 9.77965558 35.99882091 5 39 C2.69293903 40.11027309 0.38743924 41.06374932 -2 42 C-1.29875 42.66 -0.5975 43.32 0.125 44 C5.60960186 49.46893157 10.13012824 54.73344236 10.25 62.625 C10.15782957 69.05388716 9.66289595 73.95579736 5.3359375 78.90234375 C-5.35020121 88.97115572 -17.55285279 89.47655423 -31.5234375 89.2734375 C-46.30333017 88.75493484 -59.62550888 83.48220832 -71 74 C-70.34 72.68 -69.68 71.36 -69 70 C-66.125 69.875 -66.125 69.875 -63 70 C-62.34 70.66 -61.68 71.32 -61 72 C-58.73393195 72.35775034 -58.73393195 72.35775034 -56.1875 72.3125 C-54.90939453 72.33763672 -54.90939453 72.33763672 -53.60546875 72.36328125 C-50.37649958 71.91306516 -48.65171614 70.8904914 -46 69 C-41.32061078 61.77863255 -39.37467228 52.89491706 -37.125 44.6875 C-33.41699854 31.71741422 -29.62471868 19.85946792 -20 10 C-27.93999909 9.41185192 -34.90008447 11.38711419 -41.3125 16.25 C-44.51961344 19.53169747 -46.76465299 23.01396087 -49 27 C-49.33 26.01 -49.66 25.02 -50 24 C-44.96634251 14.48070419 -36.16622432 8.54135612 -26.1171875 5.4140625 C-23.3480914 4.87250496 -20.63076041 4.8053484 -17.8125 4.6875 C-12.46500836 4.326183 -8.44472002 3.30977055 -3.70703125 0.83984375 C-2 0 -2 0 0 0 Z M-14 9 C-21.91603401 18.74281109 -25.45124635 29.70411332 -29 41.5625 C-36.75763619 67.41055752 -36.75763619 67.41055752 -45.9375 72.375 C-49.23965715 73.84123297 -52.38785722 74.63878572 -56 75 C-56 75.66 -56 76.32 -56 77 C-42.08065542 84.34394868 -30.0812323 89.7238975 -13.8671875 86.34765625 C-6.37023918 83.96783478 -2.5009062 80.31974708 1.375 73.625 C2.97733899 66.89517626 2.63245505 60.00516979 -1 54 C-5.98168588 48.03870202 -11.51909427 45.60962111 -19 44 C-17.625 42 -17.625 42 -15 40 C-12.71875 39.83984375 -12.71875 39.83984375 -10.125 39.9375 C-5.57549667 40.10476115 -2.8158543 39.72561021 1 37 C4.22595322 33.51936626 5.30123098 30.70885168 5.5625 26.0625 C5.34228372 20.84022827 3.67943081 17.64885382 0 14 C-4.13064402 10.67253676 -8.89557623 9.94526366 -14 9 Z " fill="#D9BA98" transform="translate(514,637)"/>
<path d="M0 0 C2.50160818 1.87620613 3.61945652 3.23891303 5 6 C5.23965178 13.94274474 2.39928097 21.34892044 -3.00390625 27.15234375 C-7.0590639 30.80422605 -9.83541871 32.71940613 -15.375 33.4375 C-19 33 -19 33 -21.9375 30.5 C-23.9661604 27.59225343 -24.79723415 24.96004877 -24.546875 21.34375 C-22.53679952 12.72914079 -18.13318314 6.07553415 -11 1 C-7.55258453 -0.72370774 -3.76964661 -0.50306672 0 0 Z " fill="#D7B997" transform="translate(573,693)"/>
<path d="M0 0 C1.9375 1 1.9375 1 3 3 C3.03439815 5.85504678 2.59548533 8.15999306 2 11 C1.34 11.33 0.68 11.66 0 12 C-0.495 10.515 -0.495 10.515 -1 9 C-4.00950175 7.49524912 -5.60858868 7.57607359 -9 8 C-26.36094084 15.45724624 -35.45451022 34.32934183 -42.31689453 50.85644531 C-46.85725081 62.29193172 -50.25609785 74.60973763 -50.0625 87 C-50.04896484 88.1446875 -50.04896484 88.1446875 -50.03515625 89.3125 C-50.01775391 90.1478125 -50.01775391 90.1478125 -50 91 C-47.56282742 90.72965366 -47.56282742 90.72965366 -45 90 C-44.34 89.01 -43.68 88.02 -43 87 C-42.34 87.33 -41.68 87.66 -41 88 C-44.25647677 92.31004279 -46.75169074 95.14122381 -52 97 C-56.3902439 96.6097561 -56.3902439 96.6097561 -58 95 C-60.99127711 70.18711116 -42.86597975 39.13469992 -28.44140625 20.08984375 C-11.79124246 -0.98260354 -11.79124246 -0.98260354 0 0 Z " fill="#D7B897" transform="translate(588,629)"/>
<path d="M0 0 C-0.66 1.32 -1.32 2.64 -2 4 C-2.66 4 -3.32 4 -4 4 C-3.731875 5.27875 -3.46375 6.5575 -3.1875 7.875 C-2.36918079 15.08075528 -6.20247907 20.24754607 -10 26.0625 C-13.28864235 29.24837227 -16.1927344 28.94432651 -20.625 29.25 C-24 29 -24 29 -25.67578125 27.83984375 C-28.52720524 23.87813077 -27.72432732 18.60882463 -27 14 C-24.29452467 8.39966607 -19.56275072 3.78137536 -14 1 C-12.00439571 0.77039212 -10.00303565 0.58917217 -8 0.4375 C-6.9275 0.35371094 -5.855 0.26992188 -4.75 0.18359375 C-3.16900381 0.07804429 -1.58451558 0 0 0 Z " fill="#D4B796" transform="translate(642,691)"/>
<path d="M0 0 C-0.66 1.32 -1.32 2.64 -2 4 C-2.66 4 -3.32 4 -4 4 C-3.731875 5.27875 -3.46375 6.5575 -3.1875 7.875 C-2.36918079 15.08075528 -6.20247907 20.24754607 -10 26.0625 C-13.28864235 29.24837227 -16.1927344 28.94432651 -20.625 29.25 C-24 29 -24 29 -25.67578125 27.83984375 C-28.52720524 23.87813077 -27.72432732 18.60882463 -27 14 C-24.29452467 8.39966607 -19.56275072 3.78137536 -14 1 C-12.00439571 0.77039212 -10.00303565 0.58917217 -8 0.4375 C-6.9275 0.35371094 -5.855 0.26992188 -4.75 0.18359375 C-3.16900381 0.07804429 -1.58451558 0 0 0 Z " fill="#D4B796" transform="translate(611,691)"/>
<path d="M0 0 C2.55920612 4.79851148 2.77010646 9.70551808 2 15 C0.83584766 18.1806305 -0.53198705 20.66027485 -3 23 C-6.8125 24 -6.8125 24 -10 24 C-13.95276004 19.71261477 -13.42432634 15.71784617 -13.29296875 10.14453125 C-12.95083592 6.47230555 -12.18144112 3.98938228 -10 1 C-6.1496895 -1.56687367 -4.41430237 -0.83288724 0 0 Z " fill="#0C393E" transform="translate(569,698)"/>
<path d="M0 0 C0 0.66 0 1.32 0 2 C-0.825 2.33 -1.65 2.66 -2.5 3 C-5.1951234 4.71413251 -5.1951234 4.71413251 -5.4375 7.2421875 C-5.55600244 12.23410299 -5.3449775 16.05770509 -2 20 C0.38493793 22.08682069 1.96553905 22.98851302 5 24 C5 24.66 5 25.32 5 26 C7.64 26 10.28 26 13 26 C13 26.33 13 26.66 13 27 C4.03891178 27.49860769 -3.4661152 27.51825417 -10.66015625 21.64453125 C-13.16087559 19.04629082 -13.9930149 17.04346286 -14.5625 13.5 C-13.79839503 8.74556906 -12.22946058 5.63662674 -8.28125 2.73828125 C-5.38897362 0.99188556 -3.41321345 0 0 0 Z " fill="#CFB493" transform="translate(578,731)"/>
<path d="M0 0 C2.9375 0.625 2.9375 0.625 4.8125 2.125 C6.40430207 5.66233792 6.58116307 8.85703978 5.9375 12.625 C4.3125 16.0625 4.3125 16.0625 1.9375 18.625 C-1.3125 19.5 -1.3125 19.5 -4.0625 19.625 C-6.76887442 17.03139118 -7.3471214 14.87628046 -7.5 11.25 C-7.29039826 5.73656282 -5.87937258 1.19987196 0 0 Z " fill="#103B40" transform="translate(627.0625,696.375)"/>
<path d="M0 0 C2.9375 0.625 2.9375 0.625 4.8125 2.125 C6.40430207 5.66233792 6.58116307 8.85703978 5.9375 12.625 C4.3125 16.0625 4.3125 16.0625 1.9375 18.625 C-1.3125 19.5 -1.3125 19.5 -4.0625 19.625 C-6.76887442 17.03139118 -7.3471214 14.87628046 -7.5 11.25 C-7.29039826 5.73656282 -5.87937258 1.19987196 0 0 Z " fill="#103B40" transform="translate(596.0625,696.375)"/>
<path d="M0 0 C1.16213504 3.48640512 0.99110102 6.21357548 0.83984375 9.84375 C0.84461682 12.29943268 0.84461682 12.29943268 3 15 C5.56282742 15.72965366 5.56282742 15.72965366 8 16 C6.9375 18 6.9375 18 5 20 C-0.92307692 20.74038462 -0.92307692 20.74038462 -3.6875 18.83984375 C-6.47800404 14.92815505 -5.68738983 9.55395759 -5 5 C-3.55640579 2.56393477 -2.36122 1.652854 0 0 Z " fill="#DBBB99" transform="translate(620,700)"/>
<path d="M0 0 C1.16213504 3.48640512 0.99110102 6.21357548 0.83984375 9.84375 C0.84461682 12.29943268 0.84461682 12.29943268 3 15 C5.56282742 15.72965366 5.56282742 15.72965366 8 16 C6.9375 18 6.9375 18 5 20 C-0.92307692 20.74038462 -0.92307692 20.74038462 -3.6875 18.83984375 C-6.47800404 14.92815505 -5.68738983 9.55395759 -5 5 C-3.55640579 2.56393477 -2.36122 1.652854 0 0 Z " fill="#DBBB99" transform="translate(589,700)"/>
<path d="M0 0 C0.66 0.33 1.32 0.66 2 1 C1.125 2.02083333 0.25 3.04166667 -0.625 4.0625 C-1.17929687 4.71347656 -1.73359375 5.36445312 -2.3046875 6.03515625 C-3.31327355 7.20409354 -4.33487111 8.36230406 -5.3828125 9.49609375 C-14.28980193 19.29378213 -20.94887789 30.82392109 -26 43 C-26.99 43 -27.98 43 -29 43 C-24.08307836 26.58542826 -11.90930082 11.90930082 0 0 Z " fill="#CDB293" transform="translate(573,634)"/>
<path d="M0 0 C1.99788438 0.34578768 3.99759451 0.68143549 6 1 C5.67 1.66 5.34 2.32 5 3 C3.72125 2.9175 2.4425 2.835 1.125 2.75 C-5.67030575 2.76070127 -11.8962307 5.15307835 -17.3125 9.25 C-20.51961344 12.53169747 -22.76465299 16.01396087 -25 20 C-25.33 19.01 -25.66 18.02 -26 17 C-21.66476998 8.80152065 -14.37470503 3.30825894 -6.11328125 -0.43359375 C-3.63622078 -1.0975009 -2.40898493 -0.78839507 0 0 Z " fill="#BCA88B" transform="translate(490,644)"/>
<path d="M0 0 C0 0.66 0 1.32 0 2 C-6.92839493 4.1736141 -13.75592746 4.67386721 -21 4 C-21.99 3.34 -22.98 2.68 -24 2 C-22.99839844 1.95101562 -21.99679687 1.90203125 -20.96484375 1.8515625 C-19.62237241 1.77645921 -18.2799257 1.70091474 -16.9375 1.625 C-15.62652344 1.55539062 -14.31554687 1.48578125 -12.96484375 1.4140625 C-10.05034241 1.10969093 -7.86039021 0.7411821 -5.12890625 -0.1015625 C-2 -1 -2 -1 0 0 Z " fill="#D5B796" transform="translate(506,722)"/>
<path d="M0 0 C1 4 1 4 -0.21484375 6.140625 C-0.78332031 6.83671875 -1.35179687 7.5328125 -1.9375 8.25 C-2.50339844 8.95640625 -3.06929687 9.6628125 -3.65234375 10.390625 C-4.31943359 11.18726563 -4.31943359 11.18726563 -5 12 C-5.66 11.34 -6.32 10.68 -7 10 C-3.535 5.05 -3.535 5.05 0 0 Z " fill="#C2AB8E" transform="translate(561,647)"/>
<path d="M0 0 C1.99788438 0.34578768 3.99759451 0.68143549 6 1 C5.67 1.66 5.34 2.32 5 3 C1.37 3 -2.26 3 -6 3 C-6.33 2.01 -6.66 1.02 -7 0 C-3.70955471 -1.0968151 -3.16885176 -0.90538622 0 0 Z " fill="#AD9E85" transform="translate(490,644)"/>
<path d="M0 0 C0 0.66 0 1.32 0 2 C-3.375 2.625 -3.375 2.625 -7 3 C-7.66 2.34 -8.32 1.68 -9 1 C-2.25 -1.125 -2.25 -1.125 0 0 Z " fill="#C2AB8E" transform="translate(506,722)"/>
<path d="M0 0 C-0.66 1.32 -1.32 2.64 -2 4 C-2.66 3.67 -3.32 3.34 -4 3 C-5.70363822 2.77377919 -7.41328701 2.59111527 -9.125 2.4375 C-10.03507813 2.35371094 -10.94515625 2.26992188 -11.8828125 2.18359375 C-12.58148437 2.12300781 -13.28015625 2.06242188 -14 2 C-14 1.67 -14 1.34 -14 1 C-12.04175306 0.83232136 -10.08339945 0.66588795 -8.125 0.5 C-6.48917969 0.36078125 -6.48917969 0.36078125 -4.8203125 0.21875 C-3.21670436 0.09437042 -1.60842449 0 0 0 Z " fill="#98917C" transform="translate(642,691)"/>
<path d="M0 0 C-0.66 1.32 -1.32 2.64 -2 4 C-2.66 3.67 -3.32 3.34 -4 3 C-5.70363822 2.77377919 -7.41328701 2.59111527 -9.125 2.4375 C-10.03507813 2.35371094 -10.94515625 2.26992188 -11.8828125 2.18359375 C-12.58148437 2.12300781 -13.28015625 2.06242188 -14 2 C-14 1.67 -14 1.34 -14 1 C-12.04175306 0.83232136 -10.08339945 0.66588795 -8.125 0.5 C-6.48917969 0.36078125 -6.48917969 0.36078125 -4.8203125 0.21875 C-3.21670436 0.09437042 -1.60842449 0 0 0 Z " fill="#98917C" transform="translate(611,691)"/>
<path d="M0 0 C0 0.66 0 1.32 0 2 C-4.25566547 3.16063604 -7.6835078 2.76173392 -12 2 C-12 1.67 -12 1.34 -12 1 C-10.37681021 0.63762737 -8.7513642 0.28534843 -7.125 -0.0625 C-6.22007812 -0.25972656 -5.31515625 -0.45695313 -4.3828125 -0.66015625 C-2 -1 -2 -1 0 0 Z " fill="#B7A489" transform="translate(467,709)"/>
<path d="M0 0 C0.66 0.33 1.32 0.66 2 1 C1.67 1.99 1.34 2.98 1 4 C0.34 4 -0.32 4 -1 4 C-1.33 4.66 -1.66 5.32 -2 6 C-2.99 6.33 -3.98 6.66 -5 7 C-3.70700306 4.11562221 -2.34058637 2.12780579 0 0 Z " fill="#C3AC8E" transform="translate(560,695)"/>
</svg>
